<?xml version="1.0" encoding="UTF-8"?>
<!DOCTYPE svg PUBLIC "-//W3C//DTD SVG 1.1//EN" "http://www.w3.org/Graphics/SVG/1.1/DTD/svg11.dtd">
<!-- Creator: CorelDRAW 2021 (64-Bit) -->
<svg xmlns="http://www.w3.org/2000/svg" xml:space="preserve" width="73.5774mm" height="24.8779mm" version="1.1" style="shape-rendering:geometricPrecision; text-rendering:geometricPrecision; image-rendering:optimizeQuality; fill-rule:evenodd; clip-rule:evenodd"
viewBox="0 0 521.03 176.17"
 xmlns:xlink="http://www.w3.org/1999/xlink"
 xmlns:xodm="http://www.corel.com/coreldraw/odm/2003">
 <defs>
  <style type="text/css">
   <![CDATA[
    .fil0 {fill:#FEFEFE;fill-rule:nonzero}
   ]]>
  </style>
 </defs>
 <g id="图层_x0020_1">
  <metadata id="CorelCorpID_0Corel-Layer"/>
  <g id="_2241987185168">
   <path class="fil0" d="M171.57 142.71l0 -109.24c0,-17.15 -14.03,-31.17 -31.17,-31.17l-109.23 0c-17.15,0 -31.17,14.03 -31.17,31.17l0 109.24c0,16.97 13.75,30.89 30.67,31.17l110.23 0c16.91,-0.27 30.67,-14.19 30.67,-31.17zm-49.68 -82.19l9.65 0 0 3.46c0,0.28 0.13,0.41 0.4,0.4 5.72,-0.17 11.49,0.01 14.44,5.88 1.76,3.48 1.4,8.77 1.3,12.93 -0.01,0.25 0.11,0.38 0.34,0.4 0.67,0.06 1.33,0.12 1.97,0.2 11.38,1.37 9.13,12.1 9.17,20.53 0.02,2.94 -0.31,5.09 -0.98,6.46 -1.41,2.84 -3.93,4.47 -7.57,4.88l-7.1 0 -3.63 -8.42c-0.04,-0.08 -0.03,-0.18 0.02,-0.26 0.05,-0.08 0.13,-0.12 0.22,-0.12l7.7 -0.01c0.43,0 0.83,-0.18 1.13,-0.5 0.3,-0.32 0.46,-0.74 0.45,-1.18 -0.04,-2.57 -0.06,-5.14 -0.04,-7.71 0,-2.31 -1.09,-3.49 -3.29,-3.55 -2.49,-0.06 -7.2,-0.06 -14.14,0.01 -0.25,0 -0.37,0.13 -0.37,0.4l-0.04 21.34 -9.64 0 -0.03 -21.43c0,-0.1 -0.03,-0.2 -0.11,-0.27 -0.07,-0.07 -0.17,-0.12 -0.27,-0.12l-9.01 0c-0.23,-0.01 -0.42,-0.2 -0.42,-0.43l0.01 -9.33c0,-0.31 0.15,-0.47 0.44,-0.47l8.9 0.02c0.12,-0 0.23,-0.05 0.31,-0.14 0.08,-0.09 0.12,-0.2 0.12,-0.32l0 -8.06c0.01,-0.29 -0.22,-0.53 -0.51,-0.55l-5.5 0.02c-0.29,0 -0.43,-0.15 -0.43,-0.45l-0.02 -9.38c0,-0.28 0.12,-0.41 0.4,-0.41l5.69 0c0.25,0 0.37,-0.12 0.37,-0.39l0.06 -3.44 -0.01 0zm9.99 23.12l5.99 -0.01c0.1,0 0.19,-0.04 0.26,-0.12 0.07,-0.07 0.11,-0.17 0.1,-0.27l-0.03 -7.49c0,-0.59 -0.43,-1.07 -0.95,-1.07l-4.8 0.01c-0.26,0 -0.51,0.12 -0.67,0.32 -0.18,0.21 -0.28,0.49 -0.28,0.77l0.03 7.49c0,0.21 0.17,0.37 0.36,0.37zm-61.93 0.67c-2.33,0.04 -6.54,0.69 -7.46,-2.3 -0.56,-1.79 0.7,-4.28 1.47,-6.03 2.18,-4.97 4.32,-9.96 6.42,-14.96 0.09,-0.2 0.23,-0.31 0.44,-0.31l9.21 0c0.08,0 0.15,0.04 0.18,0.11 0.04,0.07 0.05,0.15 0.02,0.22l-5.33 12.46c-0.12,0.29 -0.09,0.61 0.07,0.88 0.16,0.26 0.43,0.41 0.74,0.42l7.89 0c0.1,0 0.18,0.05 0.24,0.13 0.05,0.08 0.06,0.18 0.02,0.27 -2.28,5.31 -4.55,10.59 -6.82,15.83 -0.23,0.52 -0.33,0.91 -0.29,1.15 0.08,0.53 0.38,0.8 0.89,0.81l5 0.03c0.29,0.01 0.38,0.15 0.26,0.43l-3.23 7.6c-0.09,0.26 -0.34,0.43 -0.61,0.42 -5.07,0.06 -8.62,0.06 -10.64,-0.03 -3.35,-0.15 -4.17,-3.08 -2.87,-6.1l4.59 -10.71c0.03,-0.07 0.02,-0.15 -0.02,-0.21 -0.04,-0.07 -0.11,-0.11 -0.18,-0.1l0 0zm-38.27 31.35l-3.62 0 -3.54 -8.31c-0.04,-0.08 -0.03,-0.18 0.02,-0.25 0.04,-0.08 0.12,-0.12 0.21,-0.12l5 -0.01c0.31,-0.01 0.61,-0.14 0.82,-0.36 0.22,-0.22 0.33,-0.52 0.33,-0.83l0.14 -44.1c-0,-0.12 0.04,-0.23 0.12,-0.31 0.08,-0.08 0.19,-0.13 0.3,-0.13l8.6 0c0.41,0 0.61,0.21 0.61,0.64 0.04,14.93 0.04,29.61 0,44.03 -0.02,5.92 -2.77,9.96 -8.99,9.77zm80.7 0l-32.63 0 4.37 -9.87c0.09,-0.23 0.32,-0.38 0.57,-0.37l7.99 0.01c0.28,0 0.43,-0.14 0.43,-0.43l0 -29.93c0,-0.26 -0.12,-0.39 -0.37,-0.39l-5.3 -0.01c-0.24,0 -0.43,-0.21 -0.43,-0.46l0 -9.6c0,-0.15 0.11,-0.27 0.25,-0.27l21.61 0c0.27,0 0.4,0.14 0.4,0.42l0.01 9.5c0,0.28 -0.13,0.42 -0.41,0.42l-5.34 0c-0.25,0 -0.37,0.13 -0.37,0.39l0 29.91c0,0.29 0.14,0.43 0.41,0.43l8.47 0.02c0.23,0 0.35,0.12 0.35,0.37l-0.01 9.87 0 -0.01zm38.87 -50.38c6.67,-4.58 11.36,7.1 4.06,9.11 -1.19,0.33 -3.08,0.35 -5.67,0.06 -0.23,-0.02 -0.34,-0.15 -0.34,-0.4 -0.04,-2.76 -0.58,-7.02 1.96,-8.76l0 -0.01zm-92.03 34.36l-4.41 10.28c-0.4,0.92 -0.83,0.94 -1.32,0.07 -3.25,-5.87 -4.35,-10.66 -4.99,-17.96 -0.49,-5.67 -0.91,-11.34 -1.28,-17.02 -0.01,-0.26 0.1,-0.39 0.35,-0.39l8.94 0.01c0.25,0 0.39,0.13 0.41,0.39 0.46,6.61 0.94,13.19 1.45,19.76 0.13,1.69 0.42,3.09 0.86,4.21 0.09,0.21 0.09,0.44 -0.01,0.64zm-46.97 -0.38l0 -0.42c0.42,-0.57 0.69,-1.24 0.8,-1.94 0.66,-7.29 1.2,-14.58 1.62,-21.87 0.02,-0.23 0.13,-0.34 0.34,-0.34l9.13 0c0.08,0 0.16,0.04 0.22,0.1 0.06,0.06 0.09,0.15 0.08,0.23 -0.48,6.72 -1.02,13.43 -1.61,20.14 -0.43,4.87 -1.98,11.39 -5.24,15.34 -0.21,0.25 -0.39,0.23 -0.52,-0.08l-4.82 -11.17zm62.27 16.4l-13.22 0 -1.69 -0.67c-0.24,-0.09 -0.31,-0.26 -0.2,-0.5l4.15 -9.5c0.12,-0.28 0.32,-0.38 0.6,-0.31 4.53,1.23 9.79,0.72 14.42,0.74 0.29,0.01 0.37,0.15 0.25,0.42l-4.31 9.8 0 0.01z"/>
  </g>
  <path class="fil0" d="M450.42 53.3c2.51,0 5,0.18 7.45,0.45 -6.69,-30.84 -40.01,-53.75 -78.05,-53.75 -42.52,0 -77.36,28.68 -77.36,65.1 0,21.02 11.59,38.28 30.95,51.67l-7.74 23.03 27.04 -13.42c9.68,1.89 17.44,3.84 27.1,3.84 2.43,0 4.83,-0.12 7.22,-0.31 -1.51,-5.11 -2.39,-10.48 -2.39,-16.04 0,-33.44 29.02,-60.58 65.77,-60.58zm-41.59 -20.76c5.82,0 9.68,3.8 9.68,9.56 0,5.74 -3.86,9.58 -9.68,9.58 -5.8,0 -11.62,-3.84 -11.62,-9.58 0,-5.76 5.81,-9.56 11.62,-9.56zm-54.14 19.14c-5.8,0 -11.65,-3.84 -11.65,-9.58 0,-5.76 5.85,-9.56 11.65,-9.56 5.8,0 9.66,3.8 9.66,9.56 0,5.74 -3.86,9.58 -9.66,9.58zm166.33 61.28c0,-30.61 -30.95,-55.55 -65.71,-55.55 -36.81,0 -65.79,24.95 -65.79,55.55 0,30.65 28.98,55.54 65.79,55.54 7.7,0 15.47,-1.91 23.21,-3.83l21.22 11.5 -5.82 -19.13c15.53,-11.53 27.1,-26.82 27.1,-44.08zm-87.04 -9.58c-3.85,0 -7.74,-3.79 -7.74,-7.66 0,-3.81 3.89,-7.65 7.74,-7.65 5.85,0 9.68,3.84 9.68,7.65 0,3.87 -3.83,7.66 -9.68,7.66zm42.55 0c-3.82,0 -7.68,-3.79 -7.68,-7.66 0,-3.81 3.86,-7.65 7.68,-7.65 5.8,0 9.68,3.84 9.68,7.65 0,3.87 -3.88,7.66 -9.68,7.66z"/>
 </g>
</svg>
